<svg xmlns="http://www.w3.org/2000/svg" width="574" height="184" viewBox="0 0 574 184"><defs><mask id="4hu2b" width="2" height="2" x="-1" y="-1"><path fill="#fff" d="M2 1h570v180H2z"/><path d="M6 1h562a4 4 0 0 1 4 4v172a4 4 0 0 1-4 4H6a4 4 0 0 1-4-4V5a4 4 0 0 1 4-4z"/></mask><filter id="4hu2a" width="596" height="207" x="-11" y="-12" filterUnits="userSpaceOnUse"><feOffset dy="1" in="SourceGraphic" result="FeOffset1186Out"/><feGaussianBlur in="FeOffset1186Out" result="FeGaussianBlur1187Out" stdDeviation="1.2 1.2"/></filter><clipPath id="4hu2c"><path fill="#fff" d="M6 1h562a4 4 0 0 1 4 4v172a4 4 0 0 1-4 4H6a4 4 0 0 1-4-4V5a4 4 0 0 1 4-4z"/></clipPath></defs><g><g><g filter="url(#4hu2a)"><path fill="none" d="M6 1h562a4 4 0 0 1 4 4v172a4 4 0 0 1-4 4H6a4 4 0 0 1-4-4V5a4 4 0 0 1 4-4z" mask="url(&quot;#4hu2b&quot;)"/><path fill-opacity=".2" d="M6 1h562a4 4 0 0 1 4 4v172a4 4 0 0 1-4 4H6a4 4 0 0 1-4-4V5a4 4 0 0 1 4-4z"/></g><path fill="#fff" d="M6 1h562a4 4 0 0 1 4 4v172a4 4 0 0 1-4 4H6a4 4 0 0 1-4-4V5a4 4 0 0 1 4-4z"/><path fill="none" stroke="#fff" stroke-linecap="round" stroke-linejoin="round" stroke-miterlimit="20" stroke-width="2" d="M6 1h562a4 4 0 0 1 4 4v172a4 4 0 0 1-4 4H6a4 4 0 0 1-4-4V5a4 4 0 0 1 4-4z" clip-path="url(&quot;#4hu2c&quot;)"/></g></g></svg>